<?xml version="1.0" encoding="UTF-8" standalone="no"?>
<!-- Created with Inkscape (http://www.inkscape.org/) -->

<svg
   xmlns:dc="http://purl.org/dc/elements/1.1/"
   xmlns:cc="http://creativecommons.org/ns#"
   xmlns:rdf="http://www.w3.org/1999/02/22-rdf-syntax-ns#"
   xmlns:svg="http://www.w3.org/2000/svg"
   xmlns="http://www.w3.org/2000/svg"
   xmlns:sodipodi="http://sodipodi.sourceforge.net/DTD/sodipodi-0.dtd"
   xmlns:inkscape="http://www.inkscape.org/namespaces/inkscape"
   version="1.1"
   id="svg61"
   width="16.931278"
   height="12.160001"
   viewBox="0 0 16.931278 12.160001"
   sodipodi:docname="contact-icon-3.svg"
   inkscape:version="0.92.3 (unknown)">
  <path
     style="stroke-width:0.31999999"
     d="m 1.279999,12.039328 c 0,-0.06637 1.222181,-1.230253 2.715957,-2.586407 L 6.711913,6.9871878 7.553568,7.6492339 c 0.84904,0.6678551 1.115284,0.6404512 2.115664,-0.2177593 0.498354,-0.42753 0.802202,-0.2415159 3.28,2.0080006 1.501922,1.3635488 2.730767,2.5334828 2.730767,2.5998528 0,0.06637 -3.24,0.120673 -7.2,0.120673 -3.96,0 -7.2,-0.0543 -7.2,-0.120673 z M 0,6.08 V 0.8855281 l 1.208145,1.077236 C 1.872625,2.5552438 3.184199,3.724 4.122754,4.56 L 5.829217,6.08 4.122754,7.6 C 3.184199,8.436 1.872625,9.6047562 1.208145,10.197236 L 0,11.274472 Z m 14.079999,2.6267779 c -1.496,-1.3393325 -2.72,-2.5213824 -2.72,-2.6267779 0,-0.1053955 1.224,-1.2874454 2.72,-2.6267779 l 2.72,-2.4351495 0.09294,2.5309636 c 0.05112,1.39203 0.05112,3.6698976 0,5.0619276 l -0.09294,2.5309642 z M 5.753203,4.2690672 C 4.260941,2.9559848 2.610769,1.4582745 2.086153,0.9408223 L 1.132307,0 l 7.353846,0.01442702 7.353846,0.01442702 -1.92,1.77733276 c -1.056,0.977533 -2.715058,2.4687511 -3.686796,3.313818 L 8.466406,6.6564902 Z"
     id="path71"
     inkscape:connector-curvature="0" />
</svg>
