<?xml version="1.0" encoding="UTF-8" standalone="no"?>
<!-- Created with Inkscape (http://www.inkscape.org/) -->

<svg
   xmlns:dc="http://purl.org/dc/elements/1.1/"
   xmlns:cc="http://creativecommons.org/ns#"
   xmlns:rdf="http://www.w3.org/1999/02/22-rdf-syntax-ns#"
   xmlns:svg="http://www.w3.org/2000/svg"
   xmlns="http://www.w3.org/2000/svg"
   xmlns:sodipodi="http://sodipodi.sourceforge.net/DTD/sodipodi-0.dtd"
   xmlns:inkscape="http://www.inkscape.org/namespaces/inkscape"
   version="1.1"
   id="svg3948"
   width="16.487679"
   height="13.28"
   viewBox="0 0 16.487679 13.28"
   sodipodi:docname="contact-icon-1.svg"
   inkscape:version="0.92.3 (unknown)">

  <path
     style="stroke-width:0.31999999"
     d="m 1.369671,11.438437 c 0,-1.7352831 0.101572,-1.9765811 1.76,-4.1811007 0.968,-1.2867462 1.76,-2.5460429 1.76,-2.7984374 0,-0.6093031 1.249186,-0.5915443 1.48428,0.021101 0.263888,0.6876819 3.63572,0.6876819 3.63572,0 0,-0.2666666 0.284444,-0.48 0.64,-0.48 0.352,0 0.64,0.2065046 0.64,0.4588989 0,0.2523945 0.792,1.5116912 1.76,2.7984374 1.658428,2.2045197 1.76,2.4458177 1.76,4.1811008 V 13.28 h -6.72 -6.72 z m 5.12,-1.5184371 c 0,-0.264 -0.144,-0.4799999 -0.32,-0.4799999 -0.176,0 -0.32,0.2159999 -0.32,0.4799999 0,0.2640001 0.144,0.4800001 0.32,0.4800001 0.176,0 0.32,-0.216 0.32,-0.4800001 z m 1.92,0 c 0,-0.264 -0.144,-0.4799999 -0.32,-0.4799999 -0.176,0 -0.32,0.2159999 -0.32,0.4799999 0,0.2640001 0.144,0.4800001 0.32,0.4800001 0.176,0 0.32,-0.216 0.32,-0.4800001 z m 1.92,0 c 0,-0.264 -0.135501,-0.4799999 -0.301115,-0.4799999 -0.403513,0 -0.69251,0.4997079 -0.436852,0.755366 0.360379,0.360379 0.737967,0.219485 0.737967,-0.2753661 z M 6.489671,8.32 c 0,-0.264 -0.144,-0.48 -0.32,-0.48 -0.176,0 -0.32,0.216 -0.32,0.48 0,0.264 0.144,0.48 0.32,0.48 0.176,0 0.32,-0.216 0.32,-0.48 z m 1.92,0 c 0,-0.264 -0.144,-0.48 -0.32,-0.48 -0.176,0 -0.32,0.216 -0.32,0.48 0,0.264 0.144,0.48 0.32,0.48 0.176,0 0.32,-0.216 0.32,-0.48 z m 1.92,0 c 0,-0.264 -0.135501,-0.48 -0.301115,-0.48 -0.403513,0 -0.69251,0.4997085 -0.436852,0.7553664 C 9.952083,8.9557453 10.329671,8.8148512 10.329671,8.32 Z m -3.84,-1.6 c 0,-0.264 -0.144,-0.48 -0.32,-0.48 -0.176,0 -0.32,0.216 -0.32,0.48 0,0.264 0.144,0.48 0.32,0.48 0.176,0 0.32,-0.216 0.32,-0.48 z m 1.92,0 c 0,-0.264 -0.144,-0.48 -0.32,-0.48 -0.176,0 -0.32,0.216 -0.32,0.48 0,0.264 0.144,0.48 0.32,0.48 0.176,0 0.32,-0.216 0.32,-0.48 z m 1.92,0 c 0,-0.264 -0.135501,-0.48 -0.301115,-0.48 -0.403513,0 -0.69251,0.4997085 -0.436852,0.7553664 C 9.952083,7.3557453 10.329671,7.2148512 10.329671,6.72 Z M 0.303004,6.3466666 C -0.21743,5.8262323 0.202716,5.6 1.689671,5.6 c 1.208889,0 1.6,0.1173334 1.6,0.48 0,0.3528205 -0.367407,0.48 -1.386667,0.48 -0.762666,0 -1.482666,-0.096 -1.6,-0.2133334 z M 13.209671,6.0975331 C 13.209671,5.7127392 13.578268,5.6 14.836338,5.6 c 2.114525,0 2.00328,0.758248 -0.131681,0.8975331 -1.180779,0.077034 -1.494986,-0.00704 -1.494986,-0.4 z M 0.18521,4.1752374 C 0.676631,1.1469666 2.891994,0 8.249671,0 c 5.368908,0 7.439959,1.0621826 8.011523,4.1088803 l 0.226485,1.2072711 -1.697436,-0.098076 C 13.22854,5.1278426 13.073452,5.0471981 12.850773,4.2095613 12.444749,2.6822537 11.771252,2.4203541 8.249671,2.4203541 4.72809,2.4203541 4.054593,2.6822537 3.648569,4.2095613 3.425749,5.0477267 3.271325,5.1278016 1.703268,5.2182781 L 0,5.3165561 Z"
     id="path3958"
     inkscape:connector-curvature="0" />
</svg>
